<svg>
<symbol viewBox="0 0 25 24" id="i1" xmlns="http://www.w3.org/2000/svg">
<path d="M20.748 15C20.748 15.2225 20.6821 15.44 20.5584 15.625C20.4348 15.81 20.2591 15.9542 20.0536 16.0394C19.848 16.1245 19.6218 16.1468 19.4036 16.1034C19.1853 16.06 18.9849 15.9528 18.8276 15.7955C18.6702 15.6382 18.5631 15.4377 18.5197 15.2195C18.4763 15.0012 18.4985 14.775 18.5837 14.5695C18.6688 14.3639 18.813 14.1882 18.998 14.0646C19.183 13.941 19.4005 13.875 19.623 13.875C19.9214 13.875 20.2076 13.9935 20.4185 14.2045C20.6295 14.4155 20.748 14.7016 20.748 15ZM20.3215 18.6834C20.1567 19.7455 19.618 20.7137 18.8023 21.4135C17.9866 22.1133 16.9478 22.4986 15.873 22.5H13.623C12.43 22.4988 11.2861 22.0243 10.4424 21.1806C9.59879 20.337 9.12429 19.1931 9.12305 18V14.2022C7.67323 14.0195 6.33991 13.3141 5.3733 12.2182C4.40668 11.1223 3.87323 9.71128 3.87305 8.25V3.75C3.87305 3.55109 3.95206 3.36032 4.09272 3.21967C4.23337 3.07902 4.42413 3 4.62305 3H6.87305C7.07196 3 7.26272 3.07902 7.40338 3.21967C7.54403 3.36032 7.62305 3.55109 7.62305 3.75C7.62305 3.94891 7.54403 4.13968 7.40338 4.28033C7.26272 4.42098 7.07196 4.5 6.87305 4.5H5.37305V8.25C5.37299 8.84603 5.49135 9.43614 5.72124 9.98605C5.95113 10.536 6.28797 11.0347 6.71221 11.4534C7.13645 11.872 7.63963 12.2022 8.19254 12.4248C8.74545 12.6474 9.33707 12.7579 9.93305 12.75C12.3809 12.7181 14.373 10.6641 14.373 8.17219V4.5H12.873C12.6741 4.5 12.4834 4.42098 12.3427 4.28033C12.2021 4.13968 12.123 3.94891 12.123 3.75C12.123 3.55109 12.2021 3.36032 12.3427 3.21967C12.4834 3.07902 12.6741 3 12.873 3H15.123C15.322 3 15.5127 3.07902 15.6534 3.21967C15.794 3.36032 15.873 3.55109 15.873 3.75V8.17219C15.873 11.2509 13.5734 13.8244 10.623 14.2013V18C10.623 18.7956 10.9391 19.5587 11.5017 20.1213C12.0643 20.6839 12.8274 21 13.623 21H15.873C16.5543 20.9989 17.215 20.7663 17.7468 20.3405C18.2786 19.9147 18.6499 19.3208 18.7999 18.6562C17.8941 18.4528 17.096 17.9206 16.56 17.1626C16.024 16.4046 15.7882 15.4748 15.8982 14.553C16.0082 13.6312 16.4563 12.7829 17.1556 12.1724C17.855 11.5619 18.7559 11.2325 19.6842 11.2479C20.6124 11.2634 21.5019 11.6226 22.1805 12.256C22.8592 12.8895 23.2788 13.7521 23.3581 14.6771C23.4374 15.602 23.1708 16.5235 22.6098 17.2633C22.0489 18.003 21.2335 18.5083 20.3215 18.6816V18.6834ZM21.873 15C21.873 14.555 21.7411 14.12 21.4939 13.75C21.2466 13.38 20.8952 13.0916 20.4841 12.9213C20.073 12.751 19.6206 12.7064 19.1841 12.7932C18.7476 12.88 18.3467 13.0943 18.0321 13.409C17.7174 13.7237 17.5031 14.1246 17.4163 14.561C17.3295 14.9975 17.374 15.4499 17.5443 15.861C17.7146 16.2722 18.003 16.6236 18.373 16.8708C18.743 17.118 19.178 17.25 19.623 17.25C20.2198 17.25 20.7921 17.0129 21.214 16.591C21.636 16.169 21.873 15.5967 21.873 15Z"/>
</symbol>
<symbol viewBox="0 0 25 24" id="i2" xmlns="http://www.w3.org/2000/svg">
<path d="M21.3386 6.87843L17.1499 2.68874C17.0106 2.54942 16.8452 2.4389 16.6632 2.3635C16.4812 2.28809 16.2861 2.24928 16.0891 2.24928C15.8921 2.24928 15.697 2.28809 15.515 2.3635C15.333 2.4389 15.1676 2.54942 15.0283 2.68874L3.46802 14.25C3.32812 14.3888 3.21721 14.554 3.14173 14.736C3.06624 14.918 3.0277 15.1132 3.02833 15.3103V19.5C3.02833 19.8978 3.18636 20.2793 3.46767 20.5607C3.74897 20.842 4.1305 21 4.52833 21H8.71802C8.91507 21.0006 9.11029 20.9621 9.29231 20.8866C9.47434 20.8111 9.63954 20.7002 9.77833 20.5603L21.3386 8.99999C21.478 8.8607 21.5885 8.69533 21.6639 8.51332C21.7393 8.33131 21.7781 8.13622 21.7781 7.93921C21.7781 7.7422 21.7393 7.54712 21.6639 7.36511C21.5885 7.1831 21.478 7.01772 21.3386 6.87843ZM4.83864 15L12.7783 7.06031L14.343 8.62499L6.40333 16.5637L4.83864 15ZM4.52833 16.8103L7.21802 19.5H4.52833V16.8103ZM9.02833 19.1897L7.46364 17.625L15.4033 9.68531L16.968 11.25L9.02833 19.1897ZM18.0283 10.1897L13.8386 5.99999L16.0886 3.74999L20.2783 7.93874L18.0283 10.1897Z"/>
</symbol>
<symbol id="i3" viewBox="0 0 25 24" xmlns="http://www.w3.org/2000/svg">
<g clip-path="url(#clip0_1155_10825)">
<path d="M13.9931 14.7825C15.1688 14.0502 16.0741 12.9549 16.5719 11.6624C17.0697 10.3698 17.1329 8.95028 16.7521 7.61855C16.3713 6.28681 15.5671 5.11534 14.4612 4.28135C13.3553 3.44736 12.0079 2.99625 10.6228 2.99625C9.23769 2.99625 7.89026 3.44736 6.78437 4.28135C5.67847 5.11534 4.87429 6.28681 4.49347 7.61855C4.11266 8.95028 4.17594 10.3698 4.67374 11.6624C5.17154 12.9549 6.07678 14.0502 7.25249 14.7825C5.31655 15.4162 3.57468 16.6003 2.17405 18.2672C2.046 18.4195 1.9837 18.6164 2.00084 18.8146C2.01798 19.0129 2.11317 19.1962 2.26546 19.3242C2.41775 19.4523 2.61467 19.5146 2.81291 19.4974C3.01114 19.4803 3.19444 19.3851 3.32249 19.2328C5.20405 16.9866 7.79718 15.75 10.6181 15.75C13.4391 15.75 16.0322 16.9866 17.9184 19.2328C18.0465 19.3851 18.2298 19.4803 18.428 19.4974C18.6262 19.5146 18.8232 19.4523 18.9755 19.3242C19.1278 19.1962 19.2229 19.0129 19.2401 18.8146C19.2572 18.6164 19.1949 18.4195 19.0669 18.2672C17.6662 16.6003 15.9244 15.4162 13.9931 14.7825ZM5.74312 9.375C5.74312 8.41081 6.02903 7.46828 6.5647 6.66659C7.10037 5.8649 7.86174 5.24006 8.75253 4.87108C9.64332 4.50211 10.6235 4.40556 11.5692 4.59367C12.5148 4.78177 13.3835 5.24607 14.0653 5.92785C14.747 6.60963 15.2113 7.47827 15.3994 8.42393C15.5875 9.36959 15.491 10.3498 15.122 11.2406C14.7531 12.1314 14.1282 12.8927 13.3265 13.4284C12.5248 13.9641 11.5823 14.25 10.6181 14.25C9.32564 14.2485 8.08653 13.7344 7.17261 12.8205C6.2587 11.9066 5.7446 10.6675 5.74312 9.375ZM24.2737 12.5306L21.2737 15.5306C21.2041 15.6004 21.1214 15.6557 21.0303 15.6934C20.9393 15.7312 20.8417 15.7506 20.7431 15.7506C20.6446 15.7506 20.547 15.7312 20.4559 15.6934C20.3649 15.6557 20.2821 15.6004 20.2125 15.5306L18.7125 14.0306C18.5718 13.8899 18.4927 13.699 18.4927 13.5C18.4927 13.301 18.5718 13.1101 18.7125 12.9694C18.8532 12.8286 19.0441 12.7496 19.2431 12.7496C19.4421 12.7496 19.633 12.8286 19.7737 12.9694L20.7431 13.9397L23.2125 11.4694C23.3532 11.3286 23.5441 11.2496 23.7431 11.2496C23.9421 11.2496 24.133 11.3286 24.2737 11.4694C24.4145 11.6101 24.4935 11.801 24.4935 12C24.4935 12.199 24.4145 12.3899 24.2737 12.5306Z"/>
</g>
<defs>
<clipPath id="clip0_1155_10825">
<rect width="24" height="24" fill="white" transform="translate(0.493164)"/>
</clipPath>
</defs>
</symbol>
<symbol viewBox="0 0 24 24" id="i4" fill="none" xmlns="http://www.w3.org/2000/svg">
<path d="M4.07992 15.05L10.5999 8.52999C11.3699 7.75999 12.6299 7.75999 13.3999 8.52999L19.9199 15.05" stroke="black" stroke-width="1.5" stroke-miterlimit="10" stroke-linecap="round" stroke-linejoin="round"/>
</symbol>
<symbol viewBox="0 0 24 24" id="plus" xmlns="http://www.w3.org/2000/svg">
<path d="M21 12C21 12.1989 20.921 12.3897 20.7803 12.5303C20.6397 12.671 20.4489 12.75 20.25 12.75H12.75V20.25C12.75 20.4489 12.671 20.6397 12.5303 20.7803C12.3897 20.921 12.1989 21 12 21C11.8011 21 11.6103 20.921 11.4697 20.7803C11.329 20.6397 11.25 20.4489 11.25 20.25V12.75H3.75C3.55109 12.75 3.36032 12.671 3.21967 12.5303C3.07902 12.3897 3 12.1989 3 12C3 11.8011 3.07902 11.6103 3.21967 11.4697C3.36032 11.329 3.55109 11.25 3.75 11.25H11.25V3.75C11.25 3.55109 11.329 3.36032 11.4697 3.21967C11.6103 3.07902 11.8011 3 12 3C12.1989 3 12.3897 3.07902 12.5303 3.21967C12.671 3.36032 12.75 3.55109 12.75 3.75V11.25H20.25C20.4489 11.25 20.6397 11.329 20.7803 11.4697C20.921 11.6103 21 11.8011 21 12Z"/>
</symbol>
<symbol id="edit" viewBox="0 0 20 20" xmlns="http://www.w3.org/2000/svg">
<path d="M0.976667 15.9325C0.351502 16.5575 0.000188791 17.4052 0 18.2892L0 20H1.71083C2.59482 19.9998 3.44252 19.6485 4.0675 19.0234L15.1867 7.90419L12.0958 4.81335L0.976667 15.9325Z"/>
<path d="M19.2873 0.712555C19.0843 0.509417 18.8434 0.348268 18.5781 0.238319C18.3129 0.12837 18.0286 0.0717773 17.7414 0.0717773C17.4543 0.0717773 17.17 0.12837 16.9047 0.238319C16.6395 0.348268 16.3985 0.509417 16.1956 0.712555L13.2739 3.63505L16.3648 6.72589L19.2873 3.80422C19.4904 3.6013 19.6515 3.36032 19.7615 3.09508C19.8714 2.82983 19.928 2.54552 19.928 2.25839C19.928 1.97126 19.8714 1.68694 19.7615 1.4217C19.6515 1.15645 19.4904 0.91548 19.2873 0.712555Z"/>
</symbol>
<symbol id="search" viewBox="0 0 24 24" xmlns="http://www.w3.org/2000/svg">
<path d="M21.5308 20.4694L16.8368 15.7763C18.1973 14.1429 18.8757 12.0478 18.7309 9.92694C18.5861 7.80607 17.6293 5.82268 16.0593 4.38935C14.4894 2.95602 12.4274 2.18311 10.3021 2.23141C8.17687 2.27971 6.15205 3.1455 4.64888 4.64867C3.14571 6.15184 2.27993 8.17666 2.23163 10.3019C2.18333 12.4272 2.95623 14.4892 4.38956 16.0591C5.82289 17.629 7.80629 18.5859 9.92715 18.7307C12.048 18.8755 14.1431 18.1971 15.7765 16.8366L20.4696 21.5306C20.5393 21.6003 20.622 21.6556 20.713 21.6933C20.8041 21.731 20.9017 21.7504 21.0002 21.7504C21.0988 21.7504 21.1963 21.731 21.2874 21.6933C21.3784 21.6556 21.4612 21.6003 21.5308 21.5306C21.6005 21.4609 21.6558 21.3782 21.6935 21.2872C21.7312 21.1961 21.7506 21.0985 21.7506 21C21.7506 20.9015 21.7312 20.8039 21.6935 20.7128C21.6558 20.6218 21.6005 20.5391 21.5308 20.4694ZM3.75021 10.5C3.75021 9.16498 4.14609 7.85993 4.88779 6.7499C5.62949 5.63987 6.6837 4.77471 7.9171 4.26381C9.1505 3.75292 10.5077 3.61925 11.8171 3.8797C13.1264 4.14015 14.3292 4.78303 15.2732 5.72703C16.2172 6.67103 16.8601 7.87377 17.1205 9.18314C17.381 10.4925 17.2473 11.8497 16.7364 13.0831C16.2255 14.3165 15.3603 15.3707 14.2503 16.1124C13.1403 16.8541 11.8352 17.25 10.5002 17.25C8.71061 17.248 6.99488 16.5362 5.72944 15.2708C4.464 14.0053 3.7522 12.2896 3.75021 10.5Z"/>
</symbol>
<symbol id="mark" viewBox="0 0 25 24" xmlns="http://www.w3.org/2000/svg">
<path d="M12.8643 6C12.1226 6 11.3976 6.21993 10.7809 6.63199C10.1642 7.04404 9.68354 7.62971 9.39971 8.31494C9.11588 9.00016 9.04162 9.75416 9.18631 10.4816C9.33101 11.209 9.68816 11.8772 10.2126 12.4017C10.7371 12.9261 11.4052 13.2833 12.1327 13.4279C12.8601 13.5726 13.6141 13.4984 14.2993 13.2145C14.9845 12.9307 15.5702 12.4501 15.9823 11.8334C16.3943 11.2167 16.6143 10.4917 16.6143 9.75C16.6143 8.75544 16.2192 7.80161 15.5159 7.09835C14.8126 6.39509 13.8588 6 12.8643 6ZM12.8643 12C12.4193 12 11.9842 11.868 11.6142 11.6208C11.2442 11.3736 10.9558 11.0222 10.7855 10.611C10.6152 10.1999 10.5707 9.7475 10.6575 9.31105C10.7443 8.87459 10.9586 8.47368 11.2733 8.15901C11.5879 7.84434 11.9888 7.63005 12.4253 7.54323C12.8618 7.45642 13.3142 7.50097 13.7253 7.67127C14.1364 7.84157 14.4878 8.12996 14.7351 8.49997C14.9823 8.86998 15.1143 9.30499 15.1143 9.75C15.1143 10.3467 14.8772 10.919 14.4552 11.341C14.0333 11.7629 13.461 12 12.8643 12ZM12.8643 1.5C10.677 1.50248 8.58 2.37247 7.03337 3.91911C5.48673 5.46575 4.61674 7.56273 4.61426 9.75C4.61426 12.6938 5.97457 15.8138 8.55176 18.7734C9.70978 20.1108 11.0131 21.3151 12.4377 22.3641C12.5638 22.4524 12.714 22.4998 12.868 22.4998C13.022 22.4998 13.1722 22.4524 13.2983 22.3641C14.7203 21.3147 16.0211 20.1104 17.1768 18.7734C19.7502 15.8138 21.1143 12.6938 21.1143 9.75C21.1118 7.56273 20.2418 5.46575 18.6951 3.91911C17.1485 2.37247 15.0515 1.50248 12.8643 1.5ZM12.8643 20.8125C11.3146 19.5938 6.11426 15.1172 6.11426 9.75C6.11426 7.95979 6.82542 6.2429 8.09129 4.97703C9.35716 3.71116 11.074 3 12.8643 3C14.6545 3 16.3714 3.71116 17.6372 4.97703C18.9031 6.2429 19.6143 7.95979 19.6143 9.75C19.6143 15.1153 14.4139 19.5938 12.8643 20.8125Z"/>
</symbol>
<symbol viewBox="0 0 16 16" id="i5" xmlns="http://www.w3.org/2000/svg">
<g clip-path="url(#clip0_1268_13431)">
<path d="M15 7.5H13.4769C13.3584 6.22007 12.796 5.02188 11.887 4.11296C10.9781 3.20404 9.77993 2.64163 8.5 2.52312V1C8.5 0.867392 8.44732 0.740215 8.35355 0.646447C8.25979 0.552678 8.13261 0.5 8 0.5C7.86739 0.5 7.74021 0.552678 7.64645 0.646447C7.55268 0.740215 7.5 0.867392 7.5 1V2.52312C6.22007 2.64163 5.02188 3.20404 4.11296 4.11296C3.20404 5.02188 2.64163 6.22007 2.52312 7.5H1C0.867392 7.5 0.740215 7.55268 0.646447 7.64645C0.552678 7.74021 0.5 7.86739 0.5 8C0.5 8.13261 0.552678 8.25979 0.646447 8.35355C0.740215 8.44732 0.867392 8.5 1 8.5H2.52312C2.64163 9.77993 3.20404 10.9781 4.11296 11.887C5.02188 12.796 6.22007 13.3584 7.5 13.4769V15C7.5 15.1326 7.55268 15.2598 7.64645 15.3536C7.74021 15.4473 7.86739 15.5 8 15.5C8.13261 15.5 8.25979 15.4473 8.35355 15.3536C8.44732 15.2598 8.5 15.1326 8.5 15V13.4769C9.77993 13.3584 10.9781 12.796 11.887 11.887C12.796 10.9781 13.3584 9.77993 13.4769 8.5H15C15.1326 8.5 15.2598 8.44732 15.3536 8.35355C15.4473 8.25979 15.5 8.13261 15.5 8C15.5 7.86739 15.4473 7.74021 15.3536 7.64645C15.2598 7.55268 15.1326 7.5 15 7.5ZM8 12.5C7.10998 12.5 6.23995 12.2361 5.49993 11.7416C4.75991 11.2471 4.18314 10.5443 3.84254 9.72208C3.50195 8.89981 3.41283 7.99501 3.58647 7.12209C3.7601 6.24918 4.18868 5.44736 4.81802 4.81802C5.44736 4.18868 6.24918 3.7601 7.12209 3.58647C7.99501 3.41283 8.89981 3.50195 9.72208 3.84254C10.5443 4.18314 11.2471 4.75991 11.7416 5.49993C12.2361 6.23995 12.5 7.10998 12.5 8C12.4987 9.19307 12.0241 10.3369 11.1805 11.1805C10.3369 12.0241 9.19307 12.4987 8 12.5ZM8 5.5C7.50555 5.5 7.0222 5.64662 6.61107 5.92133C6.19995 6.19603 5.87952 6.58648 5.6903 7.04329C5.50108 7.50011 5.45157 8.00277 5.54804 8.48773C5.6445 8.97268 5.8826 9.41814 6.23223 9.76777C6.58186 10.1174 7.02732 10.3555 7.51227 10.452C7.99723 10.5484 8.49989 10.4989 8.95671 10.3097C9.41352 10.1205 9.80397 9.80005 10.0787 9.38893C10.3534 8.9778 10.5 8.49445 10.5 8C10.5 7.33696 10.2366 6.70107 9.76777 6.23223C9.29893 5.76339 8.66304 5.5 8 5.5ZM8 9.5C7.70333 9.5 7.41332 9.41203 7.16664 9.2472C6.91997 9.08238 6.72771 8.84811 6.61418 8.57403C6.50065 8.29994 6.47094 7.99834 6.52882 7.70736C6.5867 7.41639 6.72956 7.14912 6.93934 6.93934C7.14912 6.72956 7.41639 6.5867 7.70736 6.52882C7.99834 6.47094 8.29994 6.50065 8.57403 6.61418C8.84811 6.72771 9.08238 6.91997 9.2472 7.16664C9.41203 7.41332 9.5 7.70333 9.5 8C9.5 8.39782 9.34196 8.77936 9.06066 9.06066C8.77936 9.34196 8.39782 9.5 8 9.5Z"/>
</g>
<defs>
<clipPath id="clip0_1268_13431">
<rect width="16" height="16" fill="white"/>
</clipPath>
</defs>
</symbol>
<symbol id="i7" viewBox="0 0 24 24" fill="none" xmlns="http://www.w3.org/2000/svg">
<path d="M3.92969 15.8791L15.8797 3.92908" stroke="white" stroke-width="1.5" stroke-miterlimit="10" stroke-linecap="round" stroke-linejoin="round"/>
<path d="M11.1016 18.279L12.3016 17.079" stroke="white" stroke-width="1.5" stroke-miterlimit="10" stroke-linecap="round" stroke-linejoin="round"/>
<path d="M13.793 15.5886L16.183 13.1986" stroke="white" stroke-width="1.5" stroke-miterlimit="10" stroke-linecap="round" stroke-linejoin="round"/>
<path d="M3.60127 10.2389L10.2413 3.59888C12.3613 1.47888 13.4213 1.46888 15.5213 3.56888L20.4313 8.47888C22.5313 10.5789 22.5213 11.6389 20.4013 13.7589L13.7613 20.3989C11.6413 22.5189 10.5813 22.5289 8.48127 20.4289L3.57127 15.5189C1.47127 13.4189 1.47127 12.3689 3.60127 10.2389Z" stroke="white" stroke-width="1.5" stroke-linecap="round" stroke-linejoin="round"/>
<path d="M2 21.9987H22" stroke="white" stroke-width="1.5" stroke-linecap="round" stroke-linejoin="round"/>
</symbol>
<symbol id="i8" viewBox="0 0 24 24" fill="none" xmlns="http://www.w3.org/2000/svg">
<g clip-path="url(#clip0_1120_10100)">
<path d="M16.5 11.25C16.5 11.0511 16.421 10.8603 16.2803 10.7197C16.1397 10.579 15.9489 10.5 15.75 10.5H14.25V9C14.25 8.80109 14.171 8.61032 14.0303 8.46967C13.8897 8.32902 13.6989 8.25 13.5 8.25C13.3011 8.25 13.1103 8.32902 12.9697 8.46967C12.829 8.61032 12.75 8.80109 12.75 9V10.5H11.25C11.0511 10.5 10.8603 10.579 10.7197 10.7197C10.579 10.8603 10.5 11.0511 10.5 11.25C10.5 11.4489 10.579 11.6397 10.7197 11.7803C10.8603 11.921 11.0511 12 11.25 12H12.75V13.5C12.75 13.6989 12.829 13.8897 12.9697 14.0303C13.1103 14.171 13.3011 14.25 13.5 14.25C13.6989 14.25 13.8897 14.171 14.0303 14.0303C14.171 13.8897 14.25 13.6989 14.25 13.5V12H15.75C15.9489 12 16.1397 11.921 16.2803 11.7803C16.421 11.6397 16.5 11.4489 16.5 11.25ZM0 11.25V17.25C0 17.6478 0.158035 18.0294 0.439341 18.3107C0.720644 18.592 1.10217 18.75 1.5 18.75H3.09375C3.25898 19.3953 3.63428 19.9673 4.16048 20.3757C4.68669 20.7842 5.33387 21.0059 6 21.0059C6.66613 21.0059 7.31331 20.7842 7.83952 20.3757C8.36572 19.9673 8.74102 19.3953 8.90625 18.75H13.5938C13.759 19.3953 14.1343 19.9673 14.6605 20.3757C15.1867 20.7842 15.8339 21.0059 16.5 21.0059C17.1661 21.0059 17.8133 20.7842 18.3395 20.3757C18.8657 19.9673 19.241 19.3953 19.4062 18.75H21C21.3978 18.75 21.7794 18.592 22.0607 18.3107C22.342 18.0294 22.5 17.6478 22.5 17.25V6.75C22.5 6.35218 22.342 5.97064 22.0607 5.68934C21.7794 5.40804 21.3978 5.25 21 5.25H6.75C6.55109 5.25 6.36032 5.32902 6.21967 5.46967C6.07902 5.61032 6 5.80109 6 6V6.75H2.75813C2.45804 6.74904 2.16463 6.83851 1.91613 7.00674C1.66763 7.17497 1.47558 7.41415 1.365 7.69312L0.0524998 10.9744C0.0176411 11.0621 -0.000175476 11.1556 0 11.25ZM6 8.25V10.5H1.85813L2.75813 8.25H6ZM21 17.25H19.4062C19.241 16.6047 18.8657 16.0327 18.3395 15.6243C17.8133 15.2158 17.1661 14.9941 16.5 14.9941C15.8339 14.9941 15.1867 15.2158 14.6605 15.6243C14.1343 16.0327 13.759 16.6047 13.5938 17.25H8.90625C8.80564 16.8646 8.62954 16.5029 8.38815 16.1861C8.14675 15.8692 7.84487 15.6034 7.5 15.4041V6.75H21V17.25ZM15 18C15 17.7033 15.088 17.4133 15.2528 17.1666C15.4176 16.92 15.6519 16.7277 15.926 16.6142C16.2001 16.5006 16.5017 16.4709 16.7926 16.5288C17.0836 16.5867 17.3509 16.7296 17.5607 16.9393C17.7704 17.1491 17.9133 17.4164 17.9712 17.7074C18.0291 17.9983 17.9994 18.2999 17.8858 18.574C17.7723 18.8481 17.58 19.0824 17.3334 19.2472C17.0867 19.412 16.7967 19.5 16.5 19.5C16.1022 19.5 15.7206 19.342 15.4393 19.0607C15.158 18.7794 15 18.3978 15 18ZM4.5 18C4.5 17.7033 4.58797 17.4133 4.7528 17.1666C4.91762 16.92 5.15189 16.7277 5.42597 16.6142C5.70006 16.5006 6.00166 16.4709 6.29263 16.5288C6.58361 16.5867 6.85088 16.7296 7.06066 16.9393C7.27044 17.1491 7.4133 17.4164 7.47118 17.7074C7.52906 17.9983 7.49935 18.2999 7.38582 18.574C7.27229 18.8481 7.08003 19.0824 6.83336 19.2472C6.58668 19.412 6.29667 19.5 6 19.5C5.60217 19.5 5.22064 19.342 4.93934 19.0607C4.65804 18.7794 4.5 18.3978 4.5 18ZM1.5 17.25V12H6V15C5.3349 15.0006 4.68879 15.2218 4.16288 15.629C3.63697 16.0362 3.26096 16.6063 3.09375 17.25H1.5Z" fill="white"/>
</g>
<defs>
<clipPath id="clip0_1120_10100">
<rect width="24" height="24" fill="white" transform="matrix(-1 0 0 1 24 0)"/>
</clipPath>
</defs>
</symbol>
<symbol id="i6" viewBox="0 0 24 24" fill="none" xmlns="http://www.w3.org/2000/svg">
<mask id="mask0_1120_10204" style="mask-type:luminance" maskUnits="userSpaceOnUse" x="0" y="0" width="24" height="24">
<path d="M0 1.90735e-06H24V24H0V1.90735e-06Z" fill="white"/>
</mask>
<g mask="url(#mask0_1120_10204)">
<path d="M3.69531 15.2996C5.08666 14.2298 6.82881 13.5937 8.71952 13.5937L8.71956 12.5469" stroke="black" stroke-miterlimit="10" stroke-linecap="round" stroke-linejoin="round"/>
<path d="M18.9375 23.5311H10.4003H0.46875V21.8436C0.46875 20.694 0.703875 19.5993 1.1287 18.605" stroke="black" stroke-miterlimit="10" stroke-linecap="round" stroke-linejoin="round"/>
<path d="M12.082 12.5469V13.5937C14.6579 13.5937 16.9581 14.7743 18.471 16.6238" stroke="black" stroke-miterlimit="10" stroke-linecap="round" stroke-linejoin="round"/>
<path d="M6.60156 7.25552V8.96767C6.60156 11.0652 8.30195 12.7656 10.3995 12.7656C12.4971 12.7656 14.1975 11.0652 14.1975 8.96767V7.32095" stroke="black" stroke-miterlimit="10" stroke-linecap="round" stroke-linejoin="round"/>
<path d="M13.2892 13.7638L10.4005 18.0391L7.51172 13.7638" stroke="black" stroke-miterlimit="10" stroke-linecap="round" stroke-linejoin="round"/>
<path d="M11.0641 10.033C10.698 10.3991 10.1044 10.3991 9.73828 10.033" stroke="black" stroke-miterlimit="10" stroke-linecap="round" stroke-linejoin="round"/>
<path d="M10.3994 0.468834C7.8758 0.468834 5.83008 2.5146 5.83008 5.03812C5.83008 5.90741 6.07284 6.72004 6.49425 7.41187C6.88177 6.7784 7.21242 6.10654 7.47928 5.40318C8.41434 5.63549 9.39244 5.75877 10.3994 5.75877C11.4063 5.75877 12.3844 5.63554 13.3194 5.40322C13.5863 6.10654 13.917 6.7784 14.3045 7.41187C14.7259 6.72004 14.9686 5.90741 14.9686 5.03812V0.468834H10.3994Z" stroke="black" stroke-miterlimit="10" stroke-linecap="round" stroke-linejoin="round"/>
<path d="M4.21289 21.1292V19.4532C4.21289 18.4119 5.05702 17.5678 6.0983 17.5678C7.13958 17.5678 7.9837 18.4119 7.9837 19.4532V21.1292" stroke="black" stroke-miterlimit="10" stroke-linecap="round" stroke-linejoin="round"/>
<path d="M8.90039 22.0786C8.90039 22.5964 8.48067 23.0161 7.96289 23.0161C7.44511 23.0161 7.02539 22.5964 7.02539 22.0786C7.02539 21.5608 7.44511 21.1411 7.96289 21.1411C8.48067 21.1411 8.90039 21.5608 8.90039 22.0786Z" stroke="black" stroke-miterlimit="10" stroke-linecap="round" stroke-linejoin="round"/>
<path d="M5.15039 22.0786C5.15039 22.5964 4.73067 23.0161 4.21289 23.0161C3.69511 23.0161 3.27539 22.5964 3.27539 22.0786C3.27539 21.5608 3.69511 21.1411 4.21289 21.1411C4.73067 21.1411 5.15039 21.5608 5.15039 22.0786Z" stroke="black" stroke-miterlimit="10" stroke-linecap="round" stroke-linejoin="round"/>
<path d="M6.95616 13.7858C6.45422 13.9866 6.09961 14.4774 6.09961 15.051V17.5676" stroke="black" stroke-miterlimit="10" stroke-linecap="round" stroke-linejoin="round"/>
<path d="M13.0156 13.689C13.7679 13.689 14.3777 14.2988 14.3777 15.0511V18.5781" stroke="black" stroke-miterlimit="10" stroke-linecap="round" stroke-linejoin="round"/>
<path d="M15.5801 19.7812C15.5801 20.4457 15.0414 20.9844 14.3769 20.9844C13.7125 20.9844 13.1738 20.4457 13.1738 19.7812C13.1738 19.1168 13.7125 18.5781 14.3769 18.5781C15.0414 18.5781 15.5801 19.1168 15.5801 19.7812Z" stroke="black" stroke-miterlimit="10" stroke-linecap="round" stroke-linejoin="round"/>
<path d="M22.7466 17.8809L22.7513 17.8837C22.8291 17.6118 22.8811 17.3282 22.9042 17.0353C22.9323 16.6781 22.9159 16.3278 22.8596 15.9897C22.8179 15.739 22.5515 15.5929 22.3177 15.6925C21.7659 15.9273 21.271 16.2751 20.8637 16.7087C20.61 16.6494 20.346 16.617 20.0743 16.617H19.0372C18.7671 16.617 18.5045 16.649 18.2522 16.7076C17.8451 16.2745 17.3505 15.9271 16.7992 15.6925C16.5654 15.5929 16.299 15.739 16.2573 15.9897C16.201 16.3278 16.1846 16.6781 16.2127 17.0353C16.2357 17.3272 16.2876 17.6099 16.3649 17.881C15.8746 18.4777 15.5801 19.2415 15.5801 20.0741C15.5801 21.9834 17.1279 23.5312 19.0372 23.5312H20.0743C21.9836 23.5312 23.5314 21.9834 23.5314 20.0741C23.5314 19.2415 23.2369 18.4777 22.7466 17.8809Z" stroke="black" stroke-miterlimit="10" stroke-linecap="round" stroke-linejoin="round"/>
<path d="M19.8219 21.0939L19.6105 21.3475C19.5821 21.3816 19.5298 21.3816 19.5014 21.3475L19.2901 21.0939C19.2515 21.0476 19.2844 20.9773 19.3446 20.9773H19.7673C19.8276 20.9773 19.8605 21.0476 19.8219 21.0939Z" stroke="black" stroke-miterlimit="10" stroke-linecap="round" stroke-linejoin="round"/>
</g>
</symbol>
<symbol id="i9" viewBox="0 0 16 16" xmlns="http://www.w3.org/2000/svg">
<g clip-path="url(#clip0_1090_2728)">
<path d="M15 7.5H13.4769C13.3584 6.22007 12.796 5.02188 11.887 4.11296C10.9781 3.20404 9.77993 2.64163 8.5 2.52312V1C8.5 0.867392 8.44732 0.740215 8.35355 0.646447C8.25979 0.552678 8.13261 0.5 8 0.5C7.86739 0.5 7.74021 0.552678 7.64645 0.646447C7.55268 0.740215 7.5 0.867392 7.5 1V2.52312C6.22007 2.64163 5.02188 3.20404 4.11296 4.11296C3.20404 5.02188 2.64163 6.22007 2.52312 7.5H1C0.867392 7.5 0.740215 7.55268 0.646447 7.64645C0.552678 7.74021 0.5 7.86739 0.5 8C0.5 8.13261 0.552678 8.25979 0.646447 8.35355C0.740215 8.44732 0.867392 8.5 1 8.5H2.52312C2.64163 9.77993 3.20404 10.9781 4.11296 11.887C5.02188 12.796 6.22007 13.3584 7.5 13.4769V15C7.5 15.1326 7.55268 15.2598 7.64645 15.3536C7.74021 15.4473 7.86739 15.5 8 15.5C8.13261 15.5 8.25979 15.4473 8.35355 15.3536C8.44732 15.2598 8.5 15.1326 8.5 15V13.4769C9.77993 13.3584 10.9781 12.796 11.887 11.887C12.796 10.9781 13.3584 9.77993 13.4769 8.5H15C15.1326 8.5 15.2598 8.44732 15.3536 8.35355C15.4473 8.25979 15.5 8.13261 15.5 8C15.5 7.86739 15.4473 7.74021 15.3536 7.64645C15.2598 7.55268 15.1326 7.5 15 7.5ZM8 12.5C7.10998 12.5 6.23995 12.2361 5.49993 11.7416C4.75991 11.2471 4.18314 10.5443 3.84254 9.72208C3.50195 8.89981 3.41283 7.99501 3.58647 7.12209C3.7601 6.24918 4.18868 5.44736 4.81802 4.81802C5.44736 4.18868 6.24918 3.7601 7.12209 3.58647C7.99501 3.41283 8.89981 3.50195 9.72208 3.84254C10.5443 4.18314 11.2471 4.75991 11.7416 5.49993C12.2361 6.23995 12.5 7.10998 12.5 8C12.4987 9.19307 12.0241 10.3369 11.1805 11.1805C10.3369 12.0241 9.19307 12.4987 8 12.5ZM8 5.5C7.50555 5.5 7.0222 5.64662 6.61107 5.92133C6.19995 6.19603 5.87952 6.58648 5.6903 7.04329C5.50108 7.50011 5.45157 8.00277 5.54804 8.48773C5.6445 8.97268 5.8826 9.41814 6.23223 9.76777C6.58186 10.1174 7.02732 10.3555 7.51227 10.452C7.99723 10.5484 8.49989 10.4989 8.95671 10.3097C9.41352 10.1205 9.80397 9.80005 10.0787 9.38893C10.3534 8.9778 10.5 8.49445 10.5 8C10.5 7.33696 10.2366 6.70107 9.76777 6.23223C9.29893 5.76339 8.66304 5.5 8 5.5ZM8 9.5C7.70333 9.5 7.41332 9.41203 7.16664 9.2472C6.91997 9.08238 6.72771 8.84811 6.61418 8.57403C6.50065 8.29994 6.47094 7.99834 6.52882 7.70736C6.5867 7.41639 6.72956 7.14912 6.93934 6.93934C7.14912 6.72956 7.41639 6.5867 7.70736 6.52882C7.99834 6.47094 8.29994 6.50065 8.57403 6.61418C8.84811 6.72771 9.08238 6.91997 9.2472 7.16664C9.41203 7.41332 9.5 7.70333 9.5 8C9.5 8.39782 9.34196 8.77936 9.06066 9.06066C8.77936 9.34196 8.39782 9.5 8 9.5Z"/>
</g>
<defs>
<clipPath id="clip0_1090_2728">
<rect width="16" height="16" fill="white"/>
</clipPath>
</defs>
</symbol>
</svg>